<mxfile host="Electron" agent="Mozilla/5.0 (Windows NT 10.0; Win64; x64) AppleWebKit/537.36 (KHTML, like Gecko) draw.io/24.7.8 Chrome/128.0.6613.36 Electron/32.0.1 Safari/537.36" version="24.7.8">
  <diagram name="Page-1" id="10fnRW3obFpyfJOelho8">
    <mxGraphModel dx="2625" dy="2653" grid="1" gridSize="10" guides="1" tooltips="1" connect="1" arrows="1" fold="1" page="1" pageScale="1" pageWidth="850" pageHeight="1100" math="0" shadow="0">
      <root>
        <mxCell id="0" />
        <mxCell id="1" parent="0" />
        <mxCell id="fhnpbWY7VHKkA1vuQ-HN-54" value="" style="shape=partialRectangle;whiteSpace=wrap;html=1;top=0;left=0;fillColor=none;rotation=90;" vertex="1" parent="1">
          <mxGeometry x="348.43" y="742.18" width="102.5" height="618.13" as="geometry" />
        </mxCell>
        <mxCell id="Gmw3tlmgy3xQDESiHzNm-3" value="" style="edgeStyle=orthogonalEdgeStyle;rounded=0;orthogonalLoop=1;jettySize=auto;html=1;" parent="1" source="fhnpbWY7VHKkA1vuQ-HN-2" target="Gmw3tlmgy3xQDESiHzNm-2" edge="1">
          <mxGeometry relative="1" as="geometry" />
        </mxCell>
        <mxCell id="Gmw3tlmgy3xQDESiHzNm-1" value="&lt;b&gt;&lt;font style=&quot;font-size: 20px;&quot; face=&quot;Times New Roman&quot;&gt;Start&lt;/font&gt;&lt;/b&gt;" style="strokeWidth=2;html=1;shape=mxgraph.flowchart.start_1;whiteSpace=wrap;" parent="1" vertex="1">
          <mxGeometry x="340" y="-230" width="100" height="60" as="geometry" />
        </mxCell>
        <mxCell id="Gmw3tlmgy3xQDESiHzNm-6" value="" style="edgeStyle=orthogonalEdgeStyle;rounded=0;orthogonalLoop=1;jettySize=auto;html=1;" parent="1" source="Gmw3tlmgy3xQDESiHzNm-2" target="Gmw3tlmgy3xQDESiHzNm-5" edge="1">
          <mxGeometry relative="1" as="geometry" />
        </mxCell>
        <mxCell id="Gmw3tlmgy3xQDESiHzNm-2" value="&lt;div style=&quot;font-size: 11px; white-space: pre;&quot;&gt;&lt;font face=&quot;Times New Roman&quot; color=&quot;#330000&quot;&gt;     &lt;/font&gt;&lt;b style=&quot;color: rgb(51, 0, 0); font-family: rwcmR4gtEUjeIfdyCR9C; background-color: initial;&quot;&gt;Sistem Penjualan Novel :&lt;/b&gt;&lt;span style=&quot;color: rgb(51, 0, 0); font-family: rwcmR4gtEUjeIfdyCR9C; background-color: initial;&quot;&gt; &lt;/span&gt;&lt;/div&gt;&lt;div style=&quot;font-size: 11px; white-space: pre;&quot;&gt;&lt;font face=&quot;rwcmR4gtEUjeIfdyCR9C&quot; color=&quot;#330000&quot;&gt;&amp;nbsp; &amp;nbsp; &amp;nbsp; &amp;nbsp; 1. Lihat Novel&lt;/font&gt;&lt;/div&gt;&lt;div style=&quot;font-size: 11px; white-space: pre;&quot;&gt;&lt;font face=&quot;rwcmR4gtEUjeIfdyCR9C&quot; color=&quot;#330000&quot;&gt;&amp;nbsp; &amp;nbsp; &amp;nbsp; &amp;nbsp; 2. Tambah Novel&lt;/font&gt;&lt;/div&gt;&lt;div style=&quot;font-size: 11px; white-space: pre;&quot;&gt;&lt;font face=&quot;rwcmR4gtEUjeIfdyCR9C&quot; color=&quot;#330000&quot;&gt;&amp;nbsp; &amp;nbsp; &amp;nbsp; &amp;nbsp; 3. Ganti Harga Novel&lt;/font&gt;&lt;/div&gt;&lt;div style=&quot;font-size: 11px; white-space: pre;&quot;&gt;&lt;font face=&quot;rwcmR4gtEUjeIfdyCR9C&quot; color=&quot;#330000&quot;&gt;&amp;nbsp; &amp;nbsp; &amp;nbsp; &amp;nbsp; 4. Hapus Novel&lt;/font&gt;&lt;/div&gt;&lt;div style=&quot;font-size: 11px; white-space: pre;&quot;&gt;&lt;font face=&quot;rwcmR4gtEUjeIfdyCR9C&quot; color=&quot;#330000&quot;&gt;&amp;nbsp; &amp;nbsp; &amp;nbsp; &amp;nbsp; 5. Keluar&lt;/font&gt;&lt;/div&gt;" style="shape=parallelogram;perimeter=parallelogramPerimeter;whiteSpace=wrap;html=1;fixedSize=1;strokeWidth=2;align=center;" parent="1" vertex="1">
          <mxGeometry x="297.5" y="320" width="170" height="100" as="geometry" />
        </mxCell>
        <mxCell id="Gmw3tlmgy3xQDESiHzNm-4" value="" style="endArrow=classic;html=1;rounded=0;" parent="1" edge="1">
          <mxGeometry width="50" height="50" relative="1" as="geometry">
            <mxPoint x="425" y="404.76" as="sourcePoint" />
            <mxPoint x="485" y="404.76" as="targetPoint" />
            <Array as="points">
              <mxPoint x="445" y="404.76" />
            </Array>
          </mxGeometry>
        </mxCell>
        <mxCell id="Gmw3tlmgy3xQDESiHzNm-10" value="" style="edgeStyle=orthogonalEdgeStyle;rounded=0;orthogonalLoop=1;jettySize=auto;html=1;" parent="1" source="Gmw3tlmgy3xQDESiHzNm-5" target="Gmw3tlmgy3xQDESiHzNm-9" edge="1">
          <mxGeometry relative="1" as="geometry" />
        </mxCell>
        <mxCell id="Gmw3tlmgy3xQDESiHzNm-5" value="&lt;font face=&quot;Times New Roman&quot;&gt;Masukkan pilihan&amp;nbsp;&lt;/font&gt;&lt;div&gt;&lt;font face=&quot;mfXB7RuG0Puxa2qr5DDN&quot;&gt;menu&lt;/font&gt;&lt;/div&gt;" style="shape=parallelogram;perimeter=parallelogramPerimeter;whiteSpace=wrap;html=1;fixedSize=1;strokeWidth=2;" parent="1" vertex="1">
          <mxGeometry x="312.5" y="460" width="140" height="60" as="geometry" />
        </mxCell>
        <mxCell id="Gmw3tlmgy3xQDESiHzNm-7" value="" style="endArrow=classic;html=1;rounded=0;" parent="1" edge="1">
          <mxGeometry width="50" height="50" relative="1" as="geometry">
            <mxPoint x="297.5" y="470" as="sourcePoint" />
            <mxPoint x="347.5" y="470" as="targetPoint" />
            <Array as="points">
              <mxPoint x="307.5" y="470" />
              <mxPoint x="337.5" y="470" />
            </Array>
          </mxGeometry>
        </mxCell>
        <mxCell id="Gmw3tlmgy3xQDESiHzNm-19" value="" style="edgeStyle=orthogonalEdgeStyle;rounded=0;orthogonalLoop=1;jettySize=auto;html=1;" parent="1" source="Gmw3tlmgy3xQDESiHzNm-9" target="Gmw3tlmgy3xQDESiHzNm-18" edge="1">
          <mxGeometry relative="1" as="geometry" />
        </mxCell>
        <mxCell id="fhnpbWY7VHKkA1vuQ-HN-16" value="" style="edgeStyle=orthogonalEdgeStyle;rounded=0;orthogonalLoop=1;jettySize=auto;html=1;" edge="1" parent="1" source="Gmw3tlmgy3xQDESiHzNm-9" target="fhnpbWY7VHKkA1vuQ-HN-15">
          <mxGeometry relative="1" as="geometry" />
        </mxCell>
        <mxCell id="Gmw3tlmgy3xQDESiHzNm-9" value="&lt;font face=&quot;Times New Roman&quot;&gt;Menu == 1&lt;/font&gt;" style="rhombus;whiteSpace=wrap;html=1;strokeWidth=2;" parent="1" vertex="1">
          <mxGeometry x="342.5" y="560" width="80" height="80" as="geometry" />
        </mxCell>
        <mxCell id="Gmw3tlmgy3xQDESiHzNm-17" value="&lt;b&gt;&lt;font face=&quot;Times New Roman&quot;&gt;True&lt;/font&gt;&lt;/b&gt;" style="text;html=1;align=center;verticalAlign=middle;resizable=0;points=[];autosize=1;strokeColor=none;fillColor=none;" parent="1" vertex="1">
          <mxGeometry x="390" y="640" width="50" height="30" as="geometry" />
        </mxCell>
        <mxCell id="Gmw3tlmgy3xQDESiHzNm-41" value="" style="edgeStyle=orthogonalEdgeStyle;rounded=0;orthogonalLoop=1;jettySize=auto;html=1;" parent="1" source="Gmw3tlmgy3xQDESiHzNm-18" target="Gmw3tlmgy3xQDESiHzNm-40" edge="1">
          <mxGeometry relative="1" as="geometry" />
        </mxCell>
        <mxCell id="fhnpbWY7VHKkA1vuQ-HN-32" value="" style="edgeStyle=orthogonalEdgeStyle;rounded=0;orthogonalLoop=1;jettySize=auto;html=1;" edge="1" parent="1" source="fhnpbWY7VHKkA1vuQ-HN-33" target="Gmw3tlmgy3xQDESiHzNm-27">
          <mxGeometry relative="1" as="geometry" />
        </mxCell>
        <mxCell id="fhnpbWY7VHKkA1vuQ-HN-36" value="" style="edgeStyle=orthogonalEdgeStyle;rounded=0;orthogonalLoop=1;jettySize=auto;html=1;" edge="1" parent="1" source="Gmw3tlmgy3xQDESiHzNm-18" target="fhnpbWY7VHKkA1vuQ-HN-33">
          <mxGeometry relative="1" as="geometry" />
        </mxCell>
        <mxCell id="Gmw3tlmgy3xQDESiHzNm-18" value="&lt;font face=&quot;Times New Roman&quot;&gt;Menu == 2&lt;/font&gt;" style="rhombus;whiteSpace=wrap;html=1;strokeWidth=2;" parent="1" vertex="1">
          <mxGeometry x="535" y="560" width="80" height="80" as="geometry" />
        </mxCell>
        <mxCell id="Gmw3tlmgy3xQDESiHzNm-20" value="&lt;b&gt;&lt;font face=&quot;Times New Roman&quot;&gt;False&lt;/font&gt;&lt;/b&gt;" style="text;html=1;align=center;verticalAlign=middle;resizable=0;points=[];autosize=1;strokeColor=none;fillColor=none;" parent="1" vertex="1">
          <mxGeometry x="425" y="570" width="50" height="30" as="geometry" />
        </mxCell>
        <mxCell id="Gmw3tlmgy3xQDESiHzNm-26" value="" style="edgeStyle=orthogonalEdgeStyle;rounded=0;orthogonalLoop=1;jettySize=auto;html=1;exitX=0.078;exitY=0.545;exitDx=0;exitDy=0;exitPerimeter=0;" parent="1" source="Gmw3tlmgy3xQDESiHzNm-22" target="Gmw3tlmgy3xQDESiHzNm-2" edge="1">
          <mxGeometry relative="1" as="geometry">
            <mxPoint x="90" y="550" as="targetPoint" />
            <Array as="points">
              <mxPoint x="328" y="820" />
              <mxPoint x="90" y="820" />
              <mxPoint x="90" y="370" />
            </Array>
            <mxPoint x="310" y="810" as="sourcePoint" />
          </mxGeometry>
        </mxCell>
        <mxCell id="Gmw3tlmgy3xQDESiHzNm-22" value="&lt;font face=&quot;Times New Roman&quot;&gt;Enter untuk memilih&lt;/font&gt;&lt;div&gt;&lt;font face=&quot;U2tfMCzVq5XJoXlDEWwH&quot;&gt;menu lagi&lt;/font&gt;&lt;/div&gt;" style="shape=parallelogram;perimeter=parallelogramPerimeter;whiteSpace=wrap;html=1;fixedSize=1;strokeWidth=2;" parent="1" vertex="1">
          <mxGeometry x="317.5" y="790" width="130" height="60" as="geometry" />
        </mxCell>
        <mxCell id="Gmw3tlmgy3xQDESiHzNm-31" value="" style="edgeStyle=orthogonalEdgeStyle;rounded=0;orthogonalLoop=1;jettySize=auto;html=1;" parent="1" source="Gmw3tlmgy3xQDESiHzNm-27" target="Gmw3tlmgy3xQDESiHzNm-30" edge="1">
          <mxGeometry relative="1" as="geometry" />
        </mxCell>
        <mxCell id="Gmw3tlmgy3xQDESiHzNm-27" value="&lt;font face=&quot;Times New Roman&quot;&gt;Masukkan&amp;nbsp;&lt;br&gt;&lt;/font&gt;&lt;div&gt;&lt;font face=&quot;_Z6wiHmPNJ_Iof_eDRnn&quot;&gt;Judul, Author, Harga,&amp;nbsp;&lt;/font&gt;&lt;/div&gt;&lt;div&gt;&lt;font face=&quot;_Z6wiHmPNJ_Iof_eDRnn&quot;&gt;Tahun terbit novel&amp;nbsp;&amp;nbsp;&lt;/font&gt;&lt;/div&gt;&lt;div&gt;&lt;font face=&quot;_Z6wiHmPNJ_Iof_eDRnn&quot;&gt;yang mau di tambah&lt;/font&gt;&lt;/div&gt;" style="shape=parallelogram;perimeter=parallelogramPerimeter;whiteSpace=wrap;html=1;fixedSize=1;strokeWidth=2;" parent="1" vertex="1">
          <mxGeometry x="500" y="790" width="150" height="60" as="geometry" />
        </mxCell>
        <mxCell id="Gmw3tlmgy3xQDESiHzNm-35" value="" style="edgeStyle=orthogonalEdgeStyle;rounded=0;orthogonalLoop=1;jettySize=auto;html=1;" parent="1" source="Gmw3tlmgy3xQDESiHzNm-30" target="Gmw3tlmgy3xQDESiHzNm-34" edge="1">
          <mxGeometry relative="1" as="geometry" />
        </mxCell>
        <mxCell id="Gmw3tlmgy3xQDESiHzNm-30" value="&lt;font face=&quot;Times New Roman&quot;&gt;Novel berhasil&amp;nbsp;&lt;/font&gt;&lt;div&gt;&lt;font face=&quot;IDNDqh24odJC8hXlumRx&quot;&gt;ditambah&lt;/font&gt;&lt;/div&gt;" style="shape=parallelogram;perimeter=parallelogramPerimeter;whiteSpace=wrap;html=1;fixedSize=1;strokeWidth=2;" parent="1" vertex="1">
          <mxGeometry x="517.5" y="880" width="115" height="50" as="geometry" />
        </mxCell>
        <mxCell id="Gmw3tlmgy3xQDESiHzNm-33" value="&lt;font face=&quot;Times New Roman&quot;&gt;&lt;b&gt;True&lt;/b&gt;&lt;/font&gt;" style="text;html=1;align=center;verticalAlign=middle;resizable=0;points=[];autosize=1;strokeColor=none;fillColor=none;" parent="1" vertex="1">
          <mxGeometry x="580" y="640" width="50" height="30" as="geometry" />
        </mxCell>
        <mxCell id="Gmw3tlmgy3xQDESiHzNm-36" value="" style="endArrow=classic;html=1;rounded=0;" parent="1" edge="1">
          <mxGeometry width="50" height="50" relative="1" as="geometry">
            <mxPoint x="490" y="800" as="sourcePoint" />
            <mxPoint x="535" y="800" as="targetPoint" />
            <Array as="points">
              <mxPoint x="510" y="800" />
            </Array>
          </mxGeometry>
        </mxCell>
        <mxCell id="Gmw3tlmgy3xQDESiHzNm-63" value="" style="edgeStyle=orthogonalEdgeStyle;rounded=0;orthogonalLoop=1;jettySize=auto;html=1;" parent="1" source="Gmw3tlmgy3xQDESiHzNm-40" target="Gmw3tlmgy3xQDESiHzNm-62" edge="1">
          <mxGeometry relative="1" as="geometry" />
        </mxCell>
        <mxCell id="fhnpbWY7VHKkA1vuQ-HN-39" value="" style="edgeStyle=orthogonalEdgeStyle;rounded=0;orthogonalLoop=1;jettySize=auto;html=1;" edge="1" parent="1" source="Gmw3tlmgy3xQDESiHzNm-40" target="fhnpbWY7VHKkA1vuQ-HN-37">
          <mxGeometry relative="1" as="geometry" />
        </mxCell>
        <mxCell id="Gmw3tlmgy3xQDESiHzNm-40" value="&lt;font face=&quot;Times New Roman&quot;&gt;Menu == 3&lt;/font&gt;" style="rhombus;whiteSpace=wrap;html=1;strokeWidth=2;" parent="1" vertex="1">
          <mxGeometry x="720" y="560" width="80" height="80" as="geometry" />
        </mxCell>
        <mxCell id="Gmw3tlmgy3xQDESiHzNm-42" value="&lt;b&gt;&lt;font face=&quot;Times New Roman&quot;&gt;False&lt;/font&gt;&lt;/b&gt;" style="text;html=1;align=center;verticalAlign=middle;resizable=0;points=[];autosize=1;strokeColor=none;fillColor=none;" parent="1" vertex="1">
          <mxGeometry x="620" y="570" width="50" height="30" as="geometry" />
        </mxCell>
        <mxCell id="Gmw3tlmgy3xQDESiHzNm-50" value="" style="edgeStyle=orthogonalEdgeStyle;rounded=0;orthogonalLoop=1;jettySize=auto;html=1;" parent="1" source="Gmw3tlmgy3xQDESiHzNm-43" target="Gmw3tlmgy3xQDESiHzNm-49" edge="1">
          <mxGeometry relative="1" as="geometry" />
        </mxCell>
        <mxCell id="Gmw3tlmgy3xQDESiHzNm-43" value="&lt;font face=&quot;Times New Roman&quot;&gt;Masukkan index&lt;/font&gt;&lt;div&gt;&lt;font face=&quot;lNxbK2cUz8GQw-w03zdk&quot;&gt;dari novel yang&amp;nbsp;&lt;/font&gt;&lt;/div&gt;&lt;div&gt;&lt;font face=&quot;lNxbK2cUz8GQw-w03zdk&quot;&gt;mau diganti&amp;nbsp;&lt;/font&gt;&lt;/div&gt;" style="shape=parallelogram;perimeter=parallelogramPerimeter;whiteSpace=wrap;html=1;fixedSize=1;strokeWidth=2;" parent="1" vertex="1">
          <mxGeometry x="685" y="790" width="150" height="60" as="geometry" />
        </mxCell>
        <mxCell id="Gmw3tlmgy3xQDESiHzNm-46" value="&lt;b&gt;&lt;font face=&quot;Times New Roman&quot;&gt;True&lt;/font&gt;&lt;/b&gt;" style="text;html=1;align=center;verticalAlign=middle;resizable=0;points=[];autosize=1;strokeColor=none;fillColor=none;" parent="1" vertex="1">
          <mxGeometry x="760" y="640" width="50" height="30" as="geometry" />
        </mxCell>
        <mxCell id="Gmw3tlmgy3xQDESiHzNm-55" value="" style="edgeStyle=orthogonalEdgeStyle;rounded=0;orthogonalLoop=1;jettySize=auto;html=1;" parent="1" source="Gmw3tlmgy3xQDESiHzNm-49" target="Gmw3tlmgy3xQDESiHzNm-54" edge="1">
          <mxGeometry relative="1" as="geometry" />
        </mxCell>
        <mxCell id="Gmw3tlmgy3xQDESiHzNm-49" value="&lt;font face=&quot;Times New Roman&quot;&gt;Masukkan judul, penulis,&lt;/font&gt;&lt;div&gt;&lt;font face=&quot;L0Eo-jZ9rid4cYkXU47r&quot;&gt;harga, dan tahun terbit&amp;nbsp;&lt;/font&gt;&lt;/div&gt;&lt;div&gt;&lt;font face=&quot;L0Eo-jZ9rid4cYkXU47r&quot;&gt;dari novel yang baru&lt;/font&gt;&lt;/div&gt;" style="shape=parallelogram;perimeter=parallelogramPerimeter;whiteSpace=wrap;html=1;fixedSize=1;strokeWidth=2;" parent="1" vertex="1">
          <mxGeometry x="678.44" y="880" width="162.5" height="70" as="geometry" />
        </mxCell>
        <mxCell id="Gmw3tlmgy3xQDESiHzNm-58" value="" style="edgeStyle=orthogonalEdgeStyle;rounded=0;orthogonalLoop=1;jettySize=auto;html=1;" parent="1" source="Gmw3tlmgy3xQDESiHzNm-54" target="Gmw3tlmgy3xQDESiHzNm-57" edge="1">
          <mxGeometry relative="1" as="geometry" />
        </mxCell>
        <mxCell id="Gmw3tlmgy3xQDESiHzNm-54" value="&lt;font face=&quot;Times New Roman&quot;&gt;Novel berhasil diganti&lt;/font&gt;&lt;div&gt;&lt;font face=&quot;Times New Roman&quot;&gt;dengan novel&amp;nbsp;&lt;/font&gt;&lt;/div&gt;&lt;div&gt;&lt;font face=&quot;Times New Roman&quot;&gt;yang&amp;nbsp;&lt;/font&gt;&lt;span style=&quot;font-family: &amp;quot;Times New Roman&amp;quot;; background-color: initial;&quot;&gt;baru&lt;/span&gt;&lt;/div&gt;" style="shape=parallelogram;perimeter=parallelogramPerimeter;whiteSpace=wrap;html=1;fixedSize=1;strokeWidth=2;" parent="1" vertex="1">
          <mxGeometry x="684.37" y="990" width="150.62" height="50" as="geometry" />
        </mxCell>
        <mxCell id="Gmw3tlmgy3xQDESiHzNm-56" value="" style="endArrow=classic;html=1;rounded=0;" parent="1" edge="1">
          <mxGeometry width="50" height="50" relative="1" as="geometry">
            <mxPoint x="675" y="890" as="sourcePoint" />
            <mxPoint x="720" y="890" as="targetPoint" />
            <Array as="points">
              <mxPoint x="695" y="890" />
            </Array>
          </mxGeometry>
        </mxCell>
        <mxCell id="Gmw3tlmgy3xQDESiHzNm-61" value="" style="edgeStyle=orthogonalEdgeStyle;rounded=0;orthogonalLoop=1;jettySize=auto;html=1;" parent="1" source="Gmw3tlmgy3xQDESiHzNm-34" edge="1">
          <mxGeometry relative="1" as="geometry">
            <mxPoint x="90" y="820" as="targetPoint" />
            <Array as="points" />
          </mxGeometry>
        </mxCell>
        <mxCell id="Gmw3tlmgy3xQDESiHzNm-57" value="&lt;font face=&quot;Times New Roman&quot;&gt;Enter untuk memilih&amp;nbsp;&lt;/font&gt;&lt;div&gt;&lt;font face=&quot;knA6eJ-DKwyDQbFy1wgR&quot;&gt;menu lagi&lt;/font&gt;&lt;/div&gt;" style="shape=parallelogram;perimeter=parallelogramPerimeter;whiteSpace=wrap;html=1;fixedSize=1;strokeWidth=2;" parent="1" vertex="1">
          <mxGeometry x="689.5200000000001" y="1080" width="140.31" height="55" as="geometry" />
        </mxCell>
        <mxCell id="Gmw3tlmgy3xQDESiHzNm-59" value="" style="endArrow=classic;html=1;rounded=0;" parent="1" edge="1">
          <mxGeometry width="50" height="50" relative="1" as="geometry">
            <mxPoint x="670" y="800" as="sourcePoint" />
            <mxPoint x="715" y="800" as="targetPoint" />
            <Array as="points">
              <mxPoint x="690" y="800" />
            </Array>
          </mxGeometry>
        </mxCell>
        <mxCell id="Gmw3tlmgy3xQDESiHzNm-80" value="" style="edgeStyle=orthogonalEdgeStyle;rounded=0;orthogonalLoop=1;jettySize=auto;html=1;" parent="1" source="Gmw3tlmgy3xQDESiHzNm-62" target="Gmw3tlmgy3xQDESiHzNm-79" edge="1">
          <mxGeometry relative="1" as="geometry" />
        </mxCell>
        <mxCell id="fhnpbWY7VHKkA1vuQ-HN-44" value="" style="edgeStyle=orthogonalEdgeStyle;rounded=0;orthogonalLoop=1;jettySize=auto;html=1;" edge="1" parent="1" source="Gmw3tlmgy3xQDESiHzNm-62" target="fhnpbWY7VHKkA1vuQ-HN-41">
          <mxGeometry relative="1" as="geometry" />
        </mxCell>
        <mxCell id="Gmw3tlmgy3xQDESiHzNm-62" value="&lt;font face=&quot;Times New Roman&quot;&gt;Menu == 4&lt;/font&gt;" style="rhombus;whiteSpace=wrap;html=1;strokeWidth=2;" parent="1" vertex="1">
          <mxGeometry x="910" y="560" width="80" height="80" as="geometry" />
        </mxCell>
        <mxCell id="Gmw3tlmgy3xQDESiHzNm-64" value="&lt;b&gt;&lt;font face=&quot;Times New Roman&quot;&gt;False&lt;/font&gt;&lt;/b&gt;" style="text;html=1;align=center;verticalAlign=middle;resizable=0;points=[];autosize=1;strokeColor=none;fillColor=none;" parent="1" vertex="1">
          <mxGeometry x="810" y="570" width="50" height="30" as="geometry" />
        </mxCell>
        <mxCell id="Gmw3tlmgy3xQDESiHzNm-69" value="" style="edgeStyle=orthogonalEdgeStyle;rounded=0;orthogonalLoop=1;jettySize=auto;html=1;" parent="1" source="Gmw3tlmgy3xQDESiHzNm-65" target="Gmw3tlmgy3xQDESiHzNm-68" edge="1">
          <mxGeometry relative="1" as="geometry" />
        </mxCell>
        <mxCell id="Gmw3tlmgy3xQDESiHzNm-65" value="&lt;font face=&quot;Times New Roman&quot;&gt;Masukkan index&amp;nbsp;&lt;/font&gt;&lt;div&gt;&lt;font face=&quot;nUHlJc6FzZ9Ut5OvxgUv&quot;&gt;dari novel yang&amp;nbsp;&lt;/font&gt;&lt;/div&gt;&lt;div&gt;&lt;font face=&quot;nUHlJc6FzZ9Ut5OvxgUv&quot;&gt;mau dihapus&lt;/font&gt;&lt;/div&gt;" style="shape=parallelogram;perimeter=parallelogramPerimeter;whiteSpace=wrap;html=1;fixedSize=1;strokeWidth=2;" parent="1" vertex="1">
          <mxGeometry x="874.38" y="787.5" width="151.25" height="65" as="geometry" />
        </mxCell>
        <mxCell id="Gmw3tlmgy3xQDESiHzNm-77" value="" style="edgeStyle=orthogonalEdgeStyle;rounded=0;orthogonalLoop=1;jettySize=auto;html=1;" parent="1" source="Gmw3tlmgy3xQDESiHzNm-68" target="Gmw3tlmgy3xQDESiHzNm-76" edge="1">
          <mxGeometry relative="1" as="geometry" />
        </mxCell>
        <mxCell id="Gmw3tlmgy3xQDESiHzNm-68" value="&lt;font face=&quot;Times New Roman&quot;&gt;Novel berhasil&amp;nbsp;&lt;/font&gt;&lt;div&gt;&lt;font face=&quot;GYn-aPXZy87iLx_Aumqs&quot;&gt;dihapus&lt;/font&gt;&lt;/div&gt;" style="shape=parallelogram;perimeter=parallelogramPerimeter;whiteSpace=wrap;html=1;fixedSize=1;strokeWidth=2;" parent="1" vertex="1">
          <mxGeometry x="877.19" y="890" width="145.63" height="70" as="geometry" />
        </mxCell>
        <mxCell id="Gmw3tlmgy3xQDESiHzNm-70" value="" style="endArrow=classic;html=1;rounded=0;" parent="1" edge="1">
          <mxGeometry width="50" height="50" relative="1" as="geometry">
            <mxPoint x="990" y="950" as="sourcePoint" />
            <mxPoint x="1035" y="950" as="targetPoint" />
            <Array as="points">
              <mxPoint x="1010" y="950" />
            </Array>
          </mxGeometry>
        </mxCell>
        <mxCell id="Gmw3tlmgy3xQDESiHzNm-76" value="&lt;font face=&quot;Times New Roman&quot;&gt;Enter untuk memilih&amp;nbsp;&lt;/font&gt;&lt;div&gt;&lt;font face=&quot;knA6eJ-DKwyDQbFy1wgR&quot;&gt;menu lagi&lt;/font&gt;&lt;/div&gt;" style="shape=parallelogram;perimeter=parallelogramPerimeter;whiteSpace=wrap;html=1;fixedSize=1;strokeWidth=2;" parent="1" vertex="1">
          <mxGeometry x="879.85" y="1010" width="140.31" height="55" as="geometry" />
        </mxCell>
        <mxCell id="Gmw3tlmgy3xQDESiHzNm-78" value="" style="endArrow=classic;html=1;rounded=0;" parent="1" edge="1">
          <mxGeometry width="50" height="50" relative="1" as="geometry">
            <mxPoint x="865" y="800" as="sourcePoint" />
            <mxPoint x="910" y="800" as="targetPoint" />
            <Array as="points">
              <mxPoint x="885" y="800" />
            </Array>
          </mxGeometry>
        </mxCell>
        <mxCell id="Gmw3tlmgy3xQDESiHzNm-84" value="" style="edgeStyle=orthogonalEdgeStyle;rounded=0;orthogonalLoop=1;jettySize=auto;html=1;" parent="1" source="Gmw3tlmgy3xQDESiHzNm-79" target="Gmw3tlmgy3xQDESiHzNm-83" edge="1">
          <mxGeometry relative="1" as="geometry" />
        </mxCell>
        <mxCell id="Gmw3tlmgy3xQDESiHzNm-88" value="" style="edgeStyle=orthogonalEdgeStyle;rounded=0;orthogonalLoop=1;jettySize=auto;html=1;" parent="1" source="Gmw3tlmgy3xQDESiHzNm-79" target="Gmw3tlmgy3xQDESiHzNm-87" edge="1">
          <mxGeometry relative="1" as="geometry" />
        </mxCell>
        <mxCell id="Gmw3tlmgy3xQDESiHzNm-79" value="&lt;font face=&quot;Times New Roman&quot;&gt;Menu == 5&lt;/font&gt;" style="rhombus;whiteSpace=wrap;html=1;strokeWidth=2;" parent="1" vertex="1">
          <mxGeometry x="1090" y="560" width="80" height="80" as="geometry" />
        </mxCell>
        <mxCell id="Gmw3tlmgy3xQDESiHzNm-81" value="&lt;b&gt;&lt;font face=&quot;Times New Roman&quot;&gt;True&lt;/font&gt;&lt;/b&gt;" style="text;html=1;align=center;verticalAlign=middle;resizable=0;points=[];autosize=1;strokeColor=none;fillColor=none;" parent="1" vertex="1">
          <mxGeometry x="950" y="640" width="50" height="30" as="geometry" />
        </mxCell>
        <mxCell id="Gmw3tlmgy3xQDESiHzNm-82" value="&lt;font face=&quot;Times New Roman&quot;&gt;&lt;b&gt;False&lt;/b&gt;&lt;/font&gt;" style="text;html=1;align=center;verticalAlign=middle;resizable=0;points=[];autosize=1;strokeColor=none;fillColor=none;" parent="1" vertex="1">
          <mxGeometry x="1000" y="560" width="50" height="30" as="geometry" />
        </mxCell>
        <mxCell id="fhnpbWY7VHKkA1vuQ-HN-47" value="" style="edgeStyle=orthogonalEdgeStyle;rounded=0;orthogonalLoop=1;jettySize=auto;html=1;" edge="1" parent="1" source="Gmw3tlmgy3xQDESiHzNm-83" target="fhnpbWY7VHKkA1vuQ-HN-46">
          <mxGeometry relative="1" as="geometry" />
        </mxCell>
        <mxCell id="Gmw3tlmgy3xQDESiHzNm-83" value="&lt;b&gt;&lt;font face=&quot;Times New Roman&quot;&gt;KELUAR&lt;/font&gt;&lt;/b&gt;" style="shape=parallelogram;perimeter=parallelogramPerimeter;whiteSpace=wrap;html=1;fixedSize=1;strokeWidth=2;" parent="1" vertex="1">
          <mxGeometry x="1070" y="700" width="120" height="60" as="geometry" />
        </mxCell>
        <mxCell id="Gmw3tlmgy3xQDESiHzNm-85" value="&lt;b&gt;&lt;font face=&quot;Times New Roman&quot;&gt;True&lt;/font&gt;&lt;/b&gt;" style="text;html=1;align=center;verticalAlign=middle;resizable=0;points=[];autosize=1;strokeColor=none;fillColor=none;" parent="1" vertex="1">
          <mxGeometry x="1130" y="640" width="50" height="30" as="geometry" />
        </mxCell>
        <mxCell id="Gmw3tlmgy3xQDESiHzNm-92" value="" style="edgeStyle=orthogonalEdgeStyle;rounded=0;orthogonalLoop=1;jettySize=auto;html=1;" parent="1" source="Gmw3tlmgy3xQDESiHzNm-87" target="Gmw3tlmgy3xQDESiHzNm-91" edge="1">
          <mxGeometry relative="1" as="geometry" />
        </mxCell>
        <mxCell id="Gmw3tlmgy3xQDESiHzNm-87" value="&lt;font face=&quot;Times New Roman&quot;&gt;Menu yang anda&lt;/font&gt;&lt;div&gt;&lt;font face=&quot;EzvPG9Ua0E8DR2N-TPyg&quot;&gt;pilih tidak&amp;nbsp;&lt;/font&gt;&lt;/div&gt;&lt;div&gt;&lt;font face=&quot;EzvPG9Ua0E8DR2N-TPyg&quot;&gt;tersedia&lt;/font&gt;&lt;/div&gt;" style="shape=parallelogram;perimeter=parallelogramPerimeter;whiteSpace=wrap;html=1;fixedSize=1;strokeWidth=2;" parent="1" vertex="1">
          <mxGeometry x="1260" y="575" width="120" height="50" as="geometry" />
        </mxCell>
        <mxCell id="Gmw3tlmgy3xQDESiHzNm-89" value="&lt;b&gt;&lt;font face=&quot;Times New Roman&quot;&gt;False&lt;/font&gt;&lt;/b&gt;" style="text;html=1;align=center;verticalAlign=middle;resizable=0;points=[];autosize=1;strokeColor=none;fillColor=none;" parent="1" vertex="1">
          <mxGeometry x="1170" y="560" width="50" height="30" as="geometry" />
        </mxCell>
        <mxCell id="Gmw3tlmgy3xQDESiHzNm-91" value="&lt;font face=&quot;Times New Roman&quot;&gt;Enter untuk memilih&lt;/font&gt;&lt;div&gt;&lt;font face=&quot;G6nDQ81SMou9tpVKDH8F&quot;&gt;menu lagi&lt;/font&gt;&lt;/div&gt;" style="shape=parallelogram;perimeter=parallelogramPerimeter;whiteSpace=wrap;html=1;fixedSize=1;strokeWidth=2;" parent="1" vertex="1">
          <mxGeometry x="1420" y="572.5" width="130" height="55" as="geometry" />
        </mxCell>
        <mxCell id="Gmw3tlmgy3xQDESiHzNm-93" value="" style="endArrow=classic;html=1;rounded=0;" parent="1" edge="1">
          <mxGeometry width="50" height="50" relative="1" as="geometry">
            <mxPoint x="1150" y="748.5699999999999" as="sourcePoint" />
            <mxPoint x="1195" y="748.5699999999999" as="targetPoint" />
            <Array as="points">
              <mxPoint x="1170" y="748.5699999999999" />
            </Array>
          </mxGeometry>
        </mxCell>
        <mxCell id="fhnpbWY7VHKkA1vuQ-HN-3" value="" style="edgeStyle=orthogonalEdgeStyle;rounded=0;orthogonalLoop=1;jettySize=auto;html=1;" edge="1" parent="1" source="Gmw3tlmgy3xQDESiHzNm-1" target="fhnpbWY7VHKkA1vuQ-HN-2">
          <mxGeometry relative="1" as="geometry">
            <mxPoint x="390" y="60" as="sourcePoint" />
            <mxPoint x="390" y="160" as="targetPoint" />
          </mxGeometry>
        </mxCell>
        <mxCell id="fhnpbWY7VHKkA1vuQ-HN-2" value="&lt;font face=&quot;Times New Roman&quot;&gt;&lt;b&gt;Def lihat novel&lt;/b&gt;&lt;/font&gt;" style="shape=internalStorage;whiteSpace=wrap;html=1;dx=15;dy=15;rounded=1;arcSize=8;strokeWidth=2;" vertex="1" parent="1">
          <mxGeometry x="307.5" y="-120" width="165" height="70" as="geometry" />
        </mxCell>
        <mxCell id="fhnpbWY7VHKkA1vuQ-HN-4" style="edgeStyle=orthogonalEdgeStyle;rounded=0;orthogonalLoop=1;jettySize=auto;html=1;exitX=0.5;exitY=1;exitDx=0;exitDy=0;" edge="1" parent="1">
          <mxGeometry relative="1" as="geometry">
            <mxPoint x="385" y="820" as="sourcePoint" />
            <mxPoint x="385" y="820" as="targetPoint" />
          </mxGeometry>
        </mxCell>
        <mxCell id="fhnpbWY7VHKkA1vuQ-HN-7" style="edgeStyle=orthogonalEdgeStyle;rounded=0;orthogonalLoop=1;jettySize=auto;html=1;exitX=0.5;exitY=1;exitDx=0;exitDy=0;" edge="1" parent="1" source="fhnpbWY7VHKkA1vuQ-HN-2" target="fhnpbWY7VHKkA1vuQ-HN-2">
          <mxGeometry relative="1" as="geometry" />
        </mxCell>
        <mxCell id="fhnpbWY7VHKkA1vuQ-HN-8" value="&lt;font face=&quot;Times New Roman&quot;&gt;&lt;b&gt;Def Tambah novel&lt;/b&gt;&lt;/font&gt;" style="shape=internalStorage;whiteSpace=wrap;html=1;dx=15;dy=15;rounded=1;arcSize=8;strokeWidth=2;" vertex="1" parent="1">
          <mxGeometry x="305" y="-10" width="165" height="70" as="geometry" />
        </mxCell>
        <mxCell id="fhnpbWY7VHKkA1vuQ-HN-9" value="&lt;font face=&quot;Times New Roman&quot;&gt;&lt;b&gt;Def hapus novel&lt;/b&gt;&lt;/font&gt;" style="shape=internalStorage;whiteSpace=wrap;html=1;dx=15;dy=15;rounded=1;arcSize=8;strokeWidth=2;" vertex="1" parent="1">
          <mxGeometry x="302.5" y="210" width="165" height="70" as="geometry" />
        </mxCell>
        <mxCell id="fhnpbWY7VHKkA1vuQ-HN-10" value="&lt;font face=&quot;Times New Roman&quot;&gt;&lt;b&gt;Def ganti novel&lt;/b&gt;&lt;/font&gt;" style="shape=internalStorage;whiteSpace=wrap;html=1;dx=15;dy=15;rounded=1;arcSize=8;strokeWidth=2;" vertex="1" parent="1">
          <mxGeometry x="307.5" y="100" width="165" height="70" as="geometry" />
        </mxCell>
        <mxCell id="Gmw3tlmgy3xQDESiHzNm-34" value="&lt;font face=&quot;Times New Roman&quot;&gt;Enter untuk memilih&lt;/font&gt;&lt;div&gt;&lt;font face=&quot;Times New Roman&quot;&gt;menu lagi&lt;/font&gt;&lt;/div&gt;" style="shape=parallelogram;perimeter=parallelogramPerimeter;whiteSpace=wrap;html=1;fixedSize=1;strokeWidth=2;" parent="1" vertex="1">
          <mxGeometry x="508.13" y="970" width="133.75" height="60" as="geometry" />
        </mxCell>
        <mxCell id="fhnpbWY7VHKkA1vuQ-HN-29" value="" style="edgeStyle=orthogonalEdgeStyle;rounded=0;orthogonalLoop=1;jettySize=auto;html=1;" edge="1" parent="1" source="fhnpbWY7VHKkA1vuQ-HN-15" target="Gmw3tlmgy3xQDESiHzNm-22">
          <mxGeometry relative="1" as="geometry" />
        </mxCell>
        <mxCell id="fhnpbWY7VHKkA1vuQ-HN-15" value="&lt;font face=&quot;Times New Roman&quot;&gt;&lt;b&gt;Lihat novel&lt;/b&gt;&lt;/font&gt;" style="shape=process;whiteSpace=wrap;html=1;backgroundOutline=1;strokeWidth=2;" vertex="1" parent="1">
          <mxGeometry x="322.5" y="690" width="120" height="60" as="geometry" />
        </mxCell>
        <mxCell id="Gmw3tlmgy3xQDESiHzNm-21" value="" style="endArrow=classic;html=1;rounded=0;" parent="1" edge="1">
          <mxGeometry width="50" height="50" relative="1" as="geometry">
            <mxPoint x="312.5" y="800" as="sourcePoint" />
            <mxPoint x="357.5" y="800" as="targetPoint" />
            <Array as="points">
              <mxPoint x="332.5" y="800" />
            </Array>
          </mxGeometry>
        </mxCell>
        <mxCell id="fhnpbWY7VHKkA1vuQ-HN-33" value="&lt;font face=&quot;Times New Roman&quot;&gt;&lt;b&gt;Tambah Novel&lt;/b&gt;&lt;/font&gt;" style="shape=process;whiteSpace=wrap;html=1;backgroundOutline=1;strokeWidth=2;" vertex="1" parent="1">
          <mxGeometry x="515" y="690" width="120" height="60" as="geometry" />
        </mxCell>
        <mxCell id="Gmw3tlmgy3xQDESiHzNm-29" value="" style="endArrow=classic;html=1;rounded=0;" parent="1" edge="1">
          <mxGeometry width="50" height="50" relative="1" as="geometry">
            <mxPoint x="592.5" y="920" as="sourcePoint" />
            <mxPoint x="637.5" y="920" as="targetPoint" />
            <Array as="points">
              <mxPoint x="612.5" y="920" />
            </Array>
          </mxGeometry>
        </mxCell>
        <mxCell id="fhnpbWY7VHKkA1vuQ-HN-40" value="" style="edgeStyle=orthogonalEdgeStyle;rounded=0;orthogonalLoop=1;jettySize=auto;html=1;" edge="1" parent="1" source="fhnpbWY7VHKkA1vuQ-HN-37" target="Gmw3tlmgy3xQDESiHzNm-43">
          <mxGeometry relative="1" as="geometry" />
        </mxCell>
        <mxCell id="fhnpbWY7VHKkA1vuQ-HN-37" value="&lt;font face=&quot;Times New Roman&quot;&gt;&lt;b&gt;Ganti novel&lt;/b&gt;&lt;/font&gt;" style="shape=process;whiteSpace=wrap;html=1;backgroundOutline=1;strokeWidth=2;" vertex="1" parent="1">
          <mxGeometry x="700" y="690" width="120" height="60" as="geometry" />
        </mxCell>
        <mxCell id="Gmw3tlmgy3xQDESiHzNm-45" value="" style="endArrow=classic;html=1;rounded=0;" parent="1" edge="1">
          <mxGeometry width="50" height="50" relative="1" as="geometry">
            <mxPoint x="800" y="1030" as="sourcePoint" />
            <mxPoint x="845" y="1030" as="targetPoint" />
            <Array as="points">
              <mxPoint x="820" y="1030" />
            </Array>
          </mxGeometry>
        </mxCell>
        <mxCell id="fhnpbWY7VHKkA1vuQ-HN-45" value="" style="edgeStyle=orthogonalEdgeStyle;rounded=0;orthogonalLoop=1;jettySize=auto;html=1;" edge="1" parent="1" source="fhnpbWY7VHKkA1vuQ-HN-41" target="Gmw3tlmgy3xQDESiHzNm-65">
          <mxGeometry relative="1" as="geometry" />
        </mxCell>
        <mxCell id="fhnpbWY7VHKkA1vuQ-HN-41" value="&lt;font face=&quot;Times New Roman&quot;&gt;&lt;b&gt;Hapus novel&lt;/b&gt;&lt;/font&gt;" style="shape=process;whiteSpace=wrap;html=1;backgroundOutline=1;strokeWidth=2;" vertex="1" parent="1">
          <mxGeometry x="890" y="690" width="120" height="60" as="geometry" />
        </mxCell>
        <mxCell id="Gmw3tlmgy3xQDESiHzNm-67" value="" style="endArrow=classic;html=1;rounded=0;" parent="1" edge="1">
          <mxGeometry width="50" height="50" relative="1" as="geometry">
            <mxPoint x="500.00000000000006" y="980" as="sourcePoint" />
            <mxPoint x="545" y="980" as="targetPoint" />
            <Array as="points">
              <mxPoint x="520" y="980" />
            </Array>
          </mxGeometry>
        </mxCell>
        <mxCell id="Gmw3tlmgy3xQDESiHzNm-86" value="" style="endArrow=classic;html=1;rounded=0;" parent="1" edge="1">
          <mxGeometry width="50" height="50" relative="1" as="geometry">
            <mxPoint x="1340" y="620" as="sourcePoint" />
            <mxPoint x="1385" y="620" as="targetPoint" />
            <Array as="points">
              <mxPoint x="1360" y="620" />
            </Array>
          </mxGeometry>
        </mxCell>
        <mxCell id="Gmw3tlmgy3xQDESiHzNm-90" value="" style="endArrow=classic;html=1;rounded=0;" parent="1" edge="1">
          <mxGeometry width="50" height="50" relative="1" as="geometry">
            <mxPoint x="1410" y="584.7900000000001" as="sourcePoint" />
            <mxPoint x="1455" y="584.7900000000001" as="targetPoint" />
            <Array as="points">
              <mxPoint x="1430" y="584.7900000000001" />
            </Array>
          </mxGeometry>
        </mxCell>
        <mxCell id="fhnpbWY7VHKkA1vuQ-HN-46" value="&lt;font face=&quot;Times New Roman&quot;&gt;&lt;b&gt;END&lt;/b&gt;&lt;/font&gt;" style="strokeWidth=2;html=1;shape=mxgraph.flowchart.start_1;whiteSpace=wrap;" vertex="1" parent="1">
          <mxGeometry x="1080" y="800" width="100" height="60" as="geometry" />
        </mxCell>
        <mxCell id="fhnpbWY7VHKkA1vuQ-HN-48" value="" style="endArrow=classic;html=1;rounded=0;" edge="1" parent="1">
          <mxGeometry width="50" height="50" relative="1" as="geometry">
            <mxPoint x="685" y="1090" as="sourcePoint" />
            <mxPoint x="730" y="1090" as="targetPoint" />
            <Array as="points">
              <mxPoint x="705" y="1090" />
            </Array>
          </mxGeometry>
        </mxCell>
        <mxCell id="fhnpbWY7VHKkA1vuQ-HN-49" value="" style="endArrow=classic;html=1;rounded=0;" edge="1" parent="1">
          <mxGeometry width="50" height="50" relative="1" as="geometry">
            <mxPoint x="874.38" y="1020" as="sourcePoint" />
            <mxPoint x="919.38" y="1020" as="targetPoint" />
            <Array as="points">
              <mxPoint x="894.38" y="1020" />
            </Array>
          </mxGeometry>
        </mxCell>
        <mxCell id="fhnpbWY7VHKkA1vuQ-HN-55" value="" style="shape=partialRectangle;whiteSpace=wrap;html=1;right=0;top=0;bottom=0;fillColor=none;routingCenterX=-0.5;" vertex="1" parent="1">
          <mxGeometry x="950" y="1065" width="120" height="135" as="geometry" />
        </mxCell>
        <mxCell id="fhnpbWY7VHKkA1vuQ-HN-56" value="" style="shape=partialRectangle;whiteSpace=wrap;html=1;top=0;left=0;fillColor=none;rotation=90;" vertex="1" parent="1">
          <mxGeometry x="470.93" y="717.5" width="102.5" height="863.13" as="geometry" />
        </mxCell>
        <mxCell id="fhnpbWY7VHKkA1vuQ-HN-57" value="" style="shape=partialRectangle;whiteSpace=wrap;html=1;right=0;top=0;bottom=0;fillColor=none;routingCenterX=-0.5;" vertex="1" parent="1">
          <mxGeometry x="1480" y="627.5" width="120" height="652.5" as="geometry" />
        </mxCell>
        <mxCell id="fhnpbWY7VHKkA1vuQ-HN-58" value="" style="shape=partialRectangle;whiteSpace=wrap;html=1;top=0;left=0;fillColor=none;rotation=90;" vertex="1" parent="1">
          <mxGeometry x="744.9" y="546.04" width="79.07" height="1387.62" as="geometry" />
        </mxCell>
      </root>
    </mxGraphModel>
  </diagram>
</mxfile>
